<svg width="40" height="12" viewBox="0 0 40 12" fill="none" xmlns="http://www.w3.org/2000/svg">
<path d="M0 6.47998H39.975V5.47998H0V6.47998ZM39.9774 5.47239C37.7651 5.11443 36.3185 4.61884 35.1555 3.82848C33.9894 3.03606 33.0637 1.91769 31.9436 0.224165L31.1095 0.775835C32.2501 2.50028 33.2628 3.75131 34.5934 4.65558C35.9271 5.56191 37.5357 6.09032 39.8177 6.45955L39.9774 5.47239ZM39.8157 5.50789C37.5349 5.87916 35.9271 6.40851 34.5936 7.31468C33.2632 8.2188 32.25 9.46868 31.1085 11.1915L31.9421 11.7438C33.0631 10.052 33.9894 8.93432 35.1557 8.14178C36.3189 7.35129 37.7652 6.85484 39.9764 6.4949L39.8157 5.50789Z" fill="white"/>
</svg>
