<svg width="160" height="28" viewBox="0 0 160 28" fill="none" xmlns="http://www.w3.org/2000/svg">
<path fill-rule="evenodd" clip-rule="evenodd" d="M23.4696 0.86299C21.8499 1.33467 20.5051 1.71474 20.4813 1.70747C20.4575 1.7002 20.9614 1.34552 21.6012 0.91932C22.2409 0.493117 22.7586 0.137908 22.7518 0.12998C22.7449 0.122052 22.4793 0.182555 22.1614 0.264517C20.9492 0.576987 19.0886 1.24341 17.4895 1.93786L16.7382 2.26409L14.7593 4.31827C13.671 5.44804 12.7715 6.36351 12.7605 6.35266C12.7495 6.34175 13.0409 5.72319 13.4079 4.97796C13.7749 4.23279 14.0636 3.61155 14.0494 3.59742C13.9632 3.51194 11.4341 5.20132 10.297 6.10379L9.80596 6.49364L9.33795 8.3858C9.08054 9.42645 8.86291 10.2377 8.85432 10.1885C8.84578 10.1393 8.79698 9.52427 8.74595 8.82172C8.69487 8.11917 8.6445 7.53578 8.63392 7.52534C8.5981 7.48982 6.45982 9.67919 6.00383 10.2183C4.34034 12.1848 3.1659 14.1053 2.55894 15.8513C2.43928 16.1956 2.32917 16.511 2.31426 16.5523C2.29677 16.6008 2.00438 16.4383 1.48919 16.0936C1.05027 15.8001 0.682511 15.5841 0.671933 15.6138C0.632026 15.7258 1.32704 17.6587 1.64834 18.329C1.96141 18.9822 2.04597 19.2503 1.93827 19.2481C1.91345 19.2477 1.4672 19.1165 0.946597 18.9566C0.425939 18.7966 0 18.6783 0 18.6936C0 18.7695 0.884933 19.9966 1.21982 20.385C1.59004 20.8143 2.08378 21.2664 2.41403 21.4782C2.50214 21.5347 2.59031 21.6223 2.6099 21.673C2.6295 21.7236 2.49409 22.225 2.30903 22.7871C1.79697 24.3427 0.983739 27.6957 1.09246 27.8035C1.13093 27.8416 2.11142 28.0236 2.13775 27.9974C2.14947 27.9858 2.2425 27.5618 2.34456 27.0551C2.77957 24.8945 3.69041 21.8697 4.56957 19.6663C7.47679 12.3794 12.7381 7.01819 19.9789 3.96432C20.3398 3.81207 20.6559 3.70842 20.6812 3.73405C20.7065 3.75962 20.8086 3.99042 20.9079 4.24698L21.0886 4.71348L20.8667 4.80444C18.3768 5.82518 16.2945 6.98326 14.3943 8.40416C11.6789 10.4346 9.36259 13.0138 7.61124 15.957C6.82439 17.2794 5.84492 19.3477 5.2971 20.8436L5.11703 21.3353L5.54856 21.3349C6.2851 21.334 7.96548 21.1054 8.17385 20.9776C8.23707 20.9389 8.29183 20.5187 8.3928 19.2977C8.4669 18.4021 8.52905 17.618 8.53097 17.5551C8.53283 17.4923 8.54551 17.4521 8.5591 17.4657C8.57274 17.4794 8.74902 18.1863 8.95084 19.0365C9.15272 19.8868 9.32996 20.5944 9.34468 20.609C9.40226 20.6662 10.4439 20.2066 10.8903 19.927L11.1143 19.7868L10.9429 19.4136C10.8486 19.2083 10.5786 18.638 10.3428 18.1463L9.91408 17.2521L10.3215 17.6694C10.5455 17.8989 10.9793 18.3497 11.2854 18.6712L11.842 19.2557L12.0161 19.1328C12.3578 18.8914 12.7715 18.3663 13.615 17.1031C15.7769 13.8655 17.4213 12.1094 19.8547 10.4397L20.507 9.9922L20.3355 9.92305C20.2412 9.88508 19.6639 9.6811 19.0527 9.46984L17.9413 9.08572L18.4817 9.06957C18.7789 9.06069 19.6847 9.07666 20.4946 9.1051L21.9671 9.15672L22.4711 8.89694C23.0014 8.62364 23.9335 8.03572 23.8958 7.99834C23.8836 7.9863 23.2604 7.92699 22.5108 7.86655C21.7612 7.8061 21.138 7.74679 21.1258 7.73469C21.1136 7.72259 22.0778 7.48576 23.2686 7.20835L25.4336 6.704L25.834 6.28542C26.604 5.48064 27.3586 4.37609 27.6834 3.57841C27.9381 2.95311 28.0228 2.51421 27.9949 1.96474C27.9636 1.34582 27.8267 1.01165 27.4345 0.595823C27.1802 0.326153 26.6369 -0.0120674 26.4779 0.000331186C26.443 0.00301358 25.0893 0.391246 23.4696 0.86299Z" fill="white"/>
<path d="M40.7444 13.5282C42.4564 13.5282 43.8164 13.8402 44.8244 14.4642C45.8324 15.0882 46.3364 16.1042 46.3364 17.5122C46.3364 18.3922 46.1284 19.1842 45.7124 19.8882C45.2964 20.5762 44.7124 21.1202 43.9604 21.5202C43.2084 21.9042 42.3524 22.0962 41.3924 22.0962C40.9764 22.0962 40.4644 22.0722 39.8564 22.0242C39.6164 22.0082 39.3284 21.9922 38.9924 21.9762C38.6564 21.9602 38.2964 21.9522 37.9124 21.9522L36.2564 21.9762C35.9524 21.9922 35.5444 22.0002 35.0324 22.0002C35.0004 22.0002 34.9844 21.9522 34.9844 21.8562C34.9844 21.7602 35.0004 21.7122 35.0324 21.7122C35.6244 21.7122 36.0564 21.6722 36.3284 21.5922C36.6004 21.5122 36.7844 21.3602 36.8804 21.1362C36.9924 20.8962 37.0484 20.5362 37.0484 20.0562V8.9442C37.0484 8.4642 37.0004 8.1122 36.9044 7.8882C36.8084 7.6642 36.6244 7.5122 36.3524 7.4322C36.0804 7.3362 35.6564 7.2882 35.0804 7.2882C35.0324 7.2882 35.0084 7.2402 35.0084 7.1442C35.0084 7.0482 35.0324 7.0002 35.0804 7.0002H44.6324C44.7604 7.0002 44.8404 7.0242 44.8724 7.0722C44.9044 7.1202 44.9284 7.2162 44.9444 7.3602L45.2324 10.5042C45.2324 10.5522 45.1844 10.5842 45.0884 10.6002C45.0084 10.6002 44.9604 10.5762 44.9444 10.5282C44.7844 9.5682 44.4324 8.8242 43.8884 8.2962C43.3604 7.7522 42.7124 7.4802 41.9444 7.4802H40.6244C40.1124 7.4802 39.7284 7.5282 39.4724 7.6242C39.2164 7.7042 39.0404 7.8562 38.9444 8.0802C38.8484 8.3042 38.8004 8.6402 38.8004 9.0882V13.6482C39.5204 13.5682 40.1684 13.5282 40.7444 13.5282ZM40.9124 21.6402C42.1604 21.6402 43.0644 21.3522 43.6244 20.7762C44.1844 20.2002 44.4644 19.3202 44.4644 18.1362C44.4644 16.6962 44.0884 15.6562 43.3364 15.0162C42.5844 14.3602 41.5204 14.0322 40.1444 14.0322C39.8884 14.0322 39.4404 14.0642 38.8004 14.1282V20.0562C38.8004 20.6002 38.9364 21.0002 39.2084 21.2562C39.4964 21.5122 40.0644 21.6402 40.9124 21.6402Z" fill="white"/>
<path d="M64.4187 21.7122C64.4827 21.7122 64.5147 21.7602 64.5147 21.8562C64.5147 21.9522 64.4827 22.0002 64.4187 22.0002C64.1147 22.0002 63.6427 21.9842 63.0027 21.9522C62.3627 21.9202 61.8907 21.9042 61.5867 21.9042C61.2187 21.9042 60.7627 21.9202 60.2187 21.9522C59.7067 21.9842 59.3067 22.0002 59.0187 22.0002C58.9547 22.0002 58.9227 21.9522 58.9227 21.8562C58.9227 21.7602 58.9547 21.7122 59.0187 21.7122C59.5947 21.7122 60.0027 21.6642 60.2427 21.5682C60.4987 21.4562 60.6267 21.2642 60.6267 20.9922C60.6267 20.7522 60.5147 20.3922 60.2907 19.9122L58.2267 15.5922H52.4907L51.0747 18.8802C50.8667 19.3602 50.7627 19.8002 50.7627 20.2002C50.7627 21.2082 51.5387 21.7122 53.0907 21.7122C53.1707 21.7122 53.2107 21.7602 53.2107 21.8562C53.2107 21.9522 53.1707 22.0002 53.0907 22.0002C52.8027 22.0002 52.3867 21.9842 51.8427 21.9522C51.2347 21.9202 50.7067 21.9042 50.2587 21.9042C49.8587 21.9042 49.3707 21.9202 48.7947 21.9522C48.3147 21.9842 47.9067 22.0002 47.5707 22.0002C47.4907 22.0002 47.4507 21.9522 47.4507 21.8562C47.4507 21.7602 47.4907 21.7122 47.5707 21.7122C48.0187 21.7122 48.3947 21.6322 48.6987 21.4722C49.0187 21.2962 49.3227 20.9922 49.6107 20.5602C49.8987 20.1282 50.2187 19.4962 50.5707 18.6642L55.6347 6.8082C55.6667 6.7602 55.7307 6.7362 55.8267 6.7362C55.9227 6.7362 55.9787 6.7602 55.9947 6.8082L61.7067 18.7122C62.2507 19.8802 62.7147 20.6722 63.0987 21.0882C63.4827 21.5042 63.9227 21.7122 64.4187 21.7122ZM52.7067 15.0882H57.9867L55.2027 9.2802L52.7067 15.0882Z" fill="white"/>
<path d="M81.8451 21.7122C81.8931 21.7122 81.9171 21.7602 81.9171 21.8562C81.9171 21.9522 81.8931 22.0002 81.8451 22.0002C81.3331 22.0002 80.9331 21.9922 80.6451 21.9762L78.9411 21.9522L77.0931 21.9762C76.8211 21.9922 76.4451 22.0002 75.9651 22.0002C75.9171 22.0002 75.8931 21.9522 75.8931 21.8562C75.8931 21.7602 75.9171 21.7122 75.9651 21.7122C76.5891 21.7122 77.0371 21.6722 77.3091 21.5922C77.5971 21.5122 77.7891 21.3602 77.8851 21.1362C77.9971 20.8962 78.0531 20.5362 78.0531 20.0562V14.4642H69.1011V20.0562C69.1011 20.5362 69.1491 20.8962 69.2451 21.1362C69.3571 21.3602 69.5491 21.5122 69.8211 21.5922C70.1091 21.6722 70.5651 21.7122 71.1891 21.7122C71.2211 21.7122 71.2371 21.7602 71.2371 21.8562C71.2371 21.9522 71.2211 22.0002 71.1891 22.0002C70.6771 22.0002 70.2771 21.9922 69.9891 21.9762L68.1891 21.9522L66.5091 21.9762C66.2211 21.9922 65.8131 22.0002 65.2851 22.0002C65.2531 22.0002 65.2371 21.9522 65.2371 21.8562C65.2371 21.7602 65.2531 21.7122 65.2851 21.7122C65.8931 21.7122 66.3331 21.6722 66.6051 21.5922C66.8931 21.5122 67.0851 21.3602 67.1811 21.1362C67.2931 20.8962 67.3491 20.5362 67.3491 20.0562V8.9442C67.3491 8.4642 67.2931 8.1122 67.1811 7.8882C67.0851 7.6642 66.8931 7.5122 66.6051 7.4322C66.3331 7.3362 65.9011 7.2882 65.3091 7.2882C65.2771 7.2882 65.2611 7.2402 65.2611 7.1442C65.2611 7.0482 65.2771 7.0002 65.3091 7.0002L66.5331 7.0242C67.2051 7.0562 67.7571 7.0722 68.1891 7.0722C68.6691 7.0722 69.2771 7.0562 70.0131 7.0242L71.1891 7.0002C71.2211 7.0002 71.2371 7.0482 71.2371 7.1442C71.2371 7.2402 71.2211 7.2882 71.1891 7.2882C70.5811 7.2882 70.1331 7.3362 69.8451 7.4322C69.5571 7.5282 69.3571 7.6962 69.2451 7.9362C69.1491 8.1602 69.1011 8.5122 69.1011 8.9922V13.9362H78.0531V8.9922C78.0531 8.5122 77.9971 8.1602 77.8851 7.9362C77.7891 7.6962 77.5971 7.5282 77.3091 7.4322C77.0211 7.3362 76.5731 7.2882 75.9651 7.2882C75.9171 7.2882 75.8931 7.2402 75.8931 7.1442C75.8931 7.0482 75.9171 7.0002 75.9651 7.0002L77.0931 7.0242C77.7971 7.0562 78.4131 7.0722 78.9411 7.0722C79.3731 7.0722 79.9411 7.0562 80.6451 7.0242L81.8451 7.0002C81.8931 7.0002 81.9171 7.0482 81.9171 7.1442C81.9171 7.2402 81.8931 7.2882 81.8451 7.2882C81.2371 7.2882 80.7891 7.3362 80.5011 7.4322C80.2291 7.5122 80.0371 7.6642 79.9251 7.8882C79.8291 8.1122 79.7811 8.4642 79.7811 8.9442V20.0562C79.7811 20.5362 79.8291 20.8962 79.9251 21.1362C80.0371 21.3602 80.2291 21.5122 80.5011 21.5922C80.7891 21.6722 81.2371 21.7122 81.8451 21.7122Z" fill="white"/>
<path d="M98.3755 21.7122C98.4075 21.7122 98.4235 21.7602 98.4235 21.8562C98.4235 21.9522 98.4075 22.0002 98.3755 22.0002H95.2315C95.0075 22.0002 94.8155 21.9442 94.6555 21.8322C94.4955 21.7042 94.2155 21.3762 93.8155 20.8482C93.4155 20.3202 92.7275 19.3602 91.7515 17.9682C90.9355 16.8002 90.3595 16.0162 90.0235 15.6162C89.7035 15.2002 89.3595 14.9042 88.9915 14.7282C88.6395 14.5362 88.1595 14.4402 87.5515 14.4402H87.2875V20.0562C87.2875 20.5362 87.3355 20.8962 87.4315 21.1362C87.5275 21.3602 87.7115 21.5122 87.9835 21.5922C88.2715 21.6722 88.7195 21.7122 89.3275 21.7122C89.3595 21.7122 89.3755 21.7602 89.3755 21.8562C89.3755 21.9522 89.3595 22.0002 89.3275 22.0002C88.8155 22.0002 88.4075 21.9922 88.1035 21.9762L86.3515 21.9522L84.6955 21.9762C84.3915 21.9922 83.9835 22.0002 83.4715 22.0002C83.4395 22.0002 83.4235 21.9522 83.4235 21.8562C83.4235 21.7602 83.4395 21.7122 83.4715 21.7122C84.0795 21.7122 84.5195 21.6722 84.7915 21.5922C85.0795 21.5122 85.2715 21.3602 85.3675 21.1362C85.4795 20.8962 85.5355 20.5362 85.5355 20.0562V8.9442C85.5355 8.4642 85.4795 8.1122 85.3675 7.8882C85.2715 7.6642 85.0795 7.5122 84.7915 7.4322C84.5195 7.3362 84.0875 7.2882 83.4955 7.2882C83.4635 7.2882 83.4475 7.2402 83.4475 7.1442C83.4475 7.0482 83.4635 7.0002 83.4955 7.0002L84.6955 7.0242C85.3995 7.0562 85.9515 7.0722 86.3515 7.0722C86.8315 7.0722 87.4235 7.0562 88.1275 7.0242L89.3275 7.0002C89.3595 7.0002 89.3755 7.0482 89.3755 7.1442C89.3755 7.2402 89.3595 7.2882 89.3275 7.2882C88.7355 7.2882 88.2955 7.3362 88.0075 7.4322C87.7355 7.5282 87.5435 7.6962 87.4315 7.9362C87.3355 8.1602 87.2875 8.5122 87.2875 8.9922V14.0562C88.1515 14.0242 88.6875 14.0082 88.8955 14.0082H89.2795L92.1115 10.0722C92.8155 9.1122 93.1675 8.4082 93.1675 7.9602C93.1675 7.7202 93.0715 7.5522 92.8795 7.4562C92.6875 7.3442 92.3915 7.2882 91.9915 7.2882C91.9595 7.2882 91.9435 7.2402 91.9435 7.1442C91.9435 7.0482 91.9595 7.0002 91.9915 7.0002L93.0235 7.0242C93.6635 7.0562 94.2475 7.0722 94.7755 7.0722C95.3355 7.0722 95.9035 7.0562 96.4795 7.0242L97.3915 7.0002C97.4395 7.0002 97.4635 7.0482 97.4635 7.1442C97.4635 7.2402 97.4395 7.2882 97.3915 7.2882C96.5755 7.2882 95.8235 7.5042 95.1355 7.9362C94.4635 8.3682 93.7675 9.0482 93.0475 9.9762L89.8555 14.0562C90.3035 14.1202 90.6795 14.2642 90.9835 14.4882C91.3035 14.6962 91.6155 14.9922 91.9195 15.3762C92.2235 15.7602 92.7435 16.4642 93.4795 17.4882C94.2315 18.5602 94.8315 19.3762 95.2795 19.9362C95.7435 20.4802 96.2235 20.9122 96.7195 21.2322C97.2155 21.5362 97.7675 21.6962 98.3755 21.7122Z" fill="white"/>
<path d="M103.228 19.9602C103.228 20.4722 103.292 20.8482 103.42 21.0882C103.548 21.3122 103.804 21.4722 104.188 21.5682C104.572 21.6642 105.172 21.7122 105.988 21.7122C106.036 21.7122 106.06 21.7602 106.06 21.8562C106.06 21.9522 106.036 22.0002 105.988 22.0002C105.332 22.0002 104.82 21.9922 104.452 21.9762L102.364 21.9522L100.732 21.9762C100.444 21.9922 100.036 22.0002 99.5078 22.0002C99.4598 22.0002 99.4358 21.9522 99.4358 21.8562C99.4358 21.7602 99.4598 21.7122 99.5078 21.7122C100.084 21.7122 100.508 21.6722 100.78 21.5922C101.052 21.5122 101.236 21.3602 101.332 21.1362C101.428 20.8962 101.476 20.5362 101.476 20.0562V8.9442C101.476 8.4642 101.428 8.1122 101.332 7.8882C101.236 7.6642 101.052 7.5122 100.78 7.4322C100.508 7.3362 100.084 7.2882 99.5078 7.2882C99.4598 7.2882 99.4358 7.2402 99.4358 7.1442C99.4358 7.0482 99.4598 7.0002 99.5078 7.0002L100.732 7.0242C101.404 7.0562 101.94 7.0722 102.34 7.0722C102.724 7.0722 103.18 7.0482 103.708 7.0002C103.9 7.0002 104.196 6.9922 104.596 6.9762C105.012 6.9442 105.372 6.9282 105.676 6.9282C107.164 6.9282 108.356 7.2642 109.252 7.9362C110.164 8.5922 110.62 9.5922 110.62 10.9362C110.62 11.9762 110.356 12.8562 109.828 13.5762C109.316 14.2962 108.652 14.8322 107.836 15.1842C107.036 15.5362 106.204 15.7122 105.34 15.7122C104.876 15.7122 104.484 15.6722 104.164 15.5922C104.132 15.5922 104.116 15.5522 104.116 15.4722C104.116 15.4242 104.124 15.3762 104.14 15.3282C104.172 15.2802 104.204 15.2642 104.236 15.2802C104.476 15.3442 104.756 15.3762 105.076 15.3762C106.068 15.3762 106.908 15.0322 107.596 14.3442C108.284 13.6562 108.628 12.6642 108.628 11.3682C108.628 10.1042 108.3 9.1122 107.644 8.3922C106.988 7.6722 106.124 7.3122 105.052 7.3122C104.524 7.3122 104.14 7.3522 103.9 7.4322C103.66 7.4962 103.484 7.6482 103.372 7.8882C103.276 8.1122 103.228 8.4802 103.228 8.9922V19.9602Z" fill="white"/>
<path d="M120.363 22.2882C118.875 22.2882 117.547 21.9442 116.379 21.2562C115.227 20.5522 114.33 19.6082 113.69 18.4242C113.066 17.2242 112.755 15.9202 112.755 14.5122C112.755 12.8642 113.171 11.4562 114.003 10.2882C114.835 9.1042 115.899 8.2162 117.195 7.6242C118.507 7.0322 119.842 6.7362 121.202 6.7362C122.722 6.7362 124.059 7.0962 125.211 7.8162C126.363 8.5202 127.243 9.4562 127.851 10.6242C128.475 11.7922 128.786 13.0322 128.786 14.3442C128.786 15.8002 128.402 17.1362 127.634 18.3522C126.867 19.5682 125.834 20.5282 124.538 21.2322C123.258 21.9362 121.867 22.2882 120.363 22.2882ZM121.202 21.7602C122.258 21.7602 123.202 21.4962 124.035 20.9682C124.882 20.4402 125.547 19.6722 126.027 18.6642C126.523 17.6402 126.771 16.4242 126.771 15.0162C126.771 13.5282 126.498 12.2002 125.954 11.0322C125.426 9.8642 124.667 8.9522 123.674 8.2962C122.683 7.6402 121.531 7.3122 120.218 7.3122C118.507 7.3122 117.171 7.8802 116.211 9.0162C115.251 10.1362 114.771 11.6882 114.771 13.6722C114.771 15.1762 115.043 16.5442 115.587 17.7762C116.131 19.0082 116.891 19.9842 117.867 20.7042C118.842 21.4082 119.954 21.7602 121.202 21.7602Z" fill="white"/>
<path d="M134.07 7.4562C133.078 7.4562 132.31 7.7282 131.766 8.2722C131.238 8.8002 130.854 9.6722 130.614 10.8882C130.598 10.9362 130.542 10.9602 130.446 10.9602C130.366 10.9442 130.326 10.9202 130.326 10.8882C130.39 10.4402 130.462 9.7202 130.542 8.7282C130.622 7.7362 130.662 6.9842 130.662 6.4722C130.662 6.3922 130.71 6.3522 130.806 6.3522C130.902 6.3522 130.95 6.3922 130.95 6.4722C130.95 6.8242 131.382 7.0002 132.246 7.0002C133.622 7.0482 135.23 7.0722 137.07 7.0722C138.014 7.0722 139.014 7.0562 140.07 7.0242L141.702 7.0002C142.278 7.0002 142.702 6.9602 142.974 6.8802C143.262 6.8002 143.446 6.6402 143.526 6.4002C143.542 6.3362 143.59 6.3042 143.67 6.3042C143.75 6.3042 143.79 6.3362 143.79 6.4002C143.742 6.8642 143.694 7.5842 143.646 8.5602C143.598 9.5202 143.574 10.2962 143.574 10.8882C143.574 10.9202 143.526 10.9362 143.43 10.9362C143.35 10.9362 143.302 10.9202 143.286 10.8882C143.222 9.6562 142.934 8.7762 142.422 8.2482C141.926 7.7202 141.15 7.4562 140.094 7.4562C139.454 7.4562 138.99 7.4882 138.702 7.5522C138.43 7.6162 138.238 7.7522 138.126 7.9602C138.03 8.1682 137.982 8.5122 137.982 8.9922V20.0562C137.982 20.5522 138.03 20.9122 138.126 21.1362C138.238 21.3602 138.446 21.5122 138.75 21.5922C139.07 21.6722 139.574 21.7122 140.262 21.7122C140.294 21.7122 140.31 21.7602 140.31 21.8562C140.31 21.9522 140.294 22.0002 140.262 22.0002C139.718 22.0002 139.286 21.9922 138.966 21.9762L137.07 21.9522L135.246 21.9762C134.926 21.9922 134.478 22.0002 133.902 22.0002C133.87 22.0002 133.854 21.9522 133.854 21.8562C133.854 21.7602 133.87 21.7122 133.902 21.7122C134.574 21.7122 135.07 21.6722 135.39 21.5922C135.71 21.5122 135.926 21.3602 136.038 21.1362C136.15 20.8962 136.206 20.5362 136.206 20.0562V8.9442C136.206 8.4802 136.15 8.1522 136.038 7.9602C135.942 7.7522 135.75 7.6162 135.462 7.5522C135.19 7.4882 134.726 7.4562 134.07 7.4562Z" fill="white"/>
<path d="M154.776 13.5282C158.04 13.5282 159.672 14.8402 159.672 17.4642C159.672 18.3762 159.464 19.1842 159.048 19.8882C158.632 20.5922 158.048 21.1362 157.296 21.5202C156.544 21.9042 155.688 22.0962 154.728 22.0962C154.312 22.0962 153.816 22.0722 153.24 22.0242C153 22.0082 152.704 21.9922 152.352 21.9762C152.016 21.9602 151.632 21.9522 151.2 21.9522L149.304 21.9762C149.016 21.9922 148.648 22.0002 148.2 22.0002C148.152 22.0002 148.128 21.9522 148.128 21.8562C148.128 21.7602 148.152 21.7122 148.2 21.7122C148.84 21.7122 149.304 21.6722 149.592 21.5922C149.896 21.5122 150.104 21.3602 150.216 21.1362C150.328 20.8962 150.384 20.5362 150.384 20.0562V8.9442C150.384 8.4482 150.352 8.1042 150.288 7.9122C150.224 7.7202 150.08 7.5922 149.856 7.5282C149.648 7.4642 149.272 7.4322 148.728 7.4322C147.816 7.4322 147.08 7.7202 146.52 8.2962C145.96 8.8562 145.6 9.6882 145.44 10.7922C145.44 10.8402 145.392 10.8642 145.296 10.8642C145.216 10.8482 145.176 10.8242 145.176 10.7922C145.24 10.2162 145.312 9.4722 145.392 8.5602C145.472 7.6322 145.512 6.9362 145.512 6.4722C145.512 6.3922 145.552 6.3522 145.632 6.3522C145.728 6.3522 145.776 6.3922 145.776 6.4722C145.776 6.6482 145.856 6.7842 146.016 6.8802C146.192 6.9602 146.496 7.0162 146.928 7.0482C147.44 7.0642 148.864 7.0722 151.2 7.0722C151.696 7.0722 152.312 7.0562 153.048 7.0242L154.224 7.0002C154.256 7.0002 154.272 7.0482 154.272 7.1442C154.272 7.2402 154.256 7.2882 154.224 7.2882C153.616 7.2882 153.168 7.3362 152.88 7.4322C152.592 7.5282 152.392 7.6962 152.28 7.9362C152.184 8.1602 152.136 8.5122 152.136 8.9922V13.7682C153.096 13.6082 153.976 13.5282 154.776 13.5282ZM154.272 21.6402C155.52 21.6402 156.416 21.3522 156.96 20.7762C157.52 20.1842 157.8 19.2642 157.8 18.0162C157.8 16.6082 157.488 15.5922 156.864 14.9682C156.256 14.3442 155.344 14.0322 154.128 14.0322C153.552 14.0322 152.888 14.1122 152.136 14.2722V20.0562C152.136 20.6002 152.272 21.0002 152.544 21.2562C152.832 21.5122 153.408 21.6402 154.272 21.6402Z" fill="white"/>
</svg>
